<?xml version="1.0" encoding="utf-8"?>
<!DOCTYPE svg PUBLIC "-//W3C//DTD SVG 20010904//EN" "http://www.w3.org/TR/2001/REC-SVG-20010904/DTD/svg10.dtd">
<svg version="1.0" xmlns="http://www.w3.org/2000/svg" width="759px" height="399px" viewBox="0 0 759 399" preserveAspectRatio="xMidYMid meet">
 <g fill="#000000">
  <path d="M308.8 323.2 l-35.8 -20.7 0 -40 0 -40 -32.4 -18.7 c-17.8 -10.3 -32.8 -18.9 -33.3 -19 l-0.9 -0.3 -34.4 19.8 -34.3 19.9 -1.7 -0.9 c-1 -0.4 -17.3 -9.8 -36.3 -20.8 l-34.7 -20 0 -42.5 0 -42.5 34.7 -20 c19 -11 35.3 -20.4 36.3 -20.8 l1.7 -0.9 34.3 19.9 34.4 19.8 0.9 -0.3 c0.5 -0.1 16.1 -9.1 34.7 -19.8 l33.9 -19.5 2.3 1.2 c1.3 0.7 16.7 9.5 34.3 19.7 17.6 10.2 32.5 18.5 33 18.5 0.6 0 16.3 -8.9 34.9 -19.8 l34 -19.6 1.7 0.8 c0.9 0.4 17.2 9.8 36.3 20.8 l34.6 20 0 40 0 40 32.3 18.7 c17.8 10.3 32.8 18.8 33.3 19 l1 0.3 34.3 -19.8 c18.9 -10.9 34.7 -19.7 35.1 -19.5 0.4 0.2 16.8 9.5 36.4 20.8 l35.6 20.5 0 42.5 0 42.5 -35.6 20.5 c-19.6 11.3 -36 20.6 -36.4 20.8 -0.4 0.2 -16.2 -8.6 -35.1 -19.5 l-34.3 -19.8 -1 0.3 c-0.5 0.2 -16.1 9.1 -34.7 19.8 l-33.8 19.5 -2.3 -1.2 c-1.3 -0.7 -16.7 -9.5 -34.3 -19.7 -17.6 -10.2 -32.4 -18.5 -33 -18.5 -0.5 0 -16.2 8.9 -34.9 19.7 -18.6 10.8 -34.1 19.6 -34.5 19.6 -0.3 -0.1 -16.7 -9.4 -36.3 -20.8z m71.5 -7.6 l30.7 -17.8 0 -37.8 0 -37.8 -30.7 -17.8 c-17 -9.7 -31.7 -18.3 -32.8 -19 l-2 -1.3 -32.5 18.8 -32.5 18.8 0 38.3 0 38.3 32.5 18.8 32.5 18.8 2 -1.3 c1.1 -0.7 15.8 -9.3 32.8 -19z m137 0.9 l32.7 -18.9 0 -37.6 0 -37.6 -33.1 -19.1 -33 -19 -33 19 -32.9 19 0 37.7 0 37.7 32.8 19 c18 10.4 32.9 18.9 33.2 18.8 0.3 -0.1 15.2 -8.7 33.3 -19z m141.8 -1.9 l28.4 -16.4 0 -38.2 0 -38.2 -28.4 -16.4 c-15.7 -9 -30.3 -17.5 -32.5 -18.8 l-4.1 -2.4 -32.5 18.8 -32.5 18.8 0 38.2 0 38.2 32.5 18.8 32.5 18.8 4.1 -2.4 c2.2 -1.3 16.8 -9.8 32.5 -18.8z m-485.1 -119.9 l28.5 -16.5 0 -38.2 0 -38.2 -28.5 -16.5 c-15.7 -9 -30.3 -17.5 -32.5 -18.8 l-4 -2.3 -32.5 18.8 -32.5 18.8 0 38.2 0 38.2 32.5 18.8 32.5 18.8 4 -2.3 c2.2 -1.3 16.8 -9.8 32.5 -18.8z m168 -54.7 l0 -37.7 -33 -19 -32.9 -19.1 -33.1 19.1 -33 19.1 0 37.6 0 37.6 33 19.1 33.1 19.1 32.9 -19.1 33 -19 0 -37.7z m107.5 55.7 l30 -17.4 0 -38.3 0 -38.3 -32.5 -18.7 -32.5 -18.8 -1 0.6 c-0.5 0.4 -15.2 8.8 -32.5 18.8 l-31.5 18.2 0 38.2 0 38.1 32.5 18.8 32.5 18.8 2.5 -1.3 c1.4 -0.7 16 -9.2 32.5 -18.7z"/>
  <path d="M307.2 288.8 l0.3 -11.2 14.8 -8.5 c8.1 -4.7 14.7 -8.8 14.7 -9.1 0 -0.3 -6.6 -4.4 -14.7 -9.1 l-14.8 -8.5 -0.3 -11.2 -0.3 -11.2 3.6 0 3.5 0 0 8.9 0 8.8 15.3 8.8 c8.3 4.9 15.7 8.8 16.2 8.8 0.6 0 7.5 -3.9 15.5 -8.5 l14.5 -8.5 0.3 -9.2 0.3 -9.1 3.4 0 3.5 0 0 11.3 0 11.3 -14.5 8.3 -14.5 8.2 0 0.9 0 0.9 14.5 8.2 14.5 8.3 0 11.3 0 11.3 -3.5 0 -3.4 0 -0.3 -9.1 -0.3 -9.2 -14.5 -8.5 c-8 -4.6 -14.9 -8.5 -15.5 -8.5 -0.5 0 -7.9 3.9 -16.2 8.8 l-15.3 8.8 0 8.8 0 8.9 -3.5 0 -3.6 0 0.3 -11.2z"/>
  <path d="M480 260 l0 -40 3.5 0 3.5 0 0 40 0 40 -3.5 0 -3.5 0 0 -40z"/>
  <path d="M605.5 290.1 l-17 -9.9 0 -20.2 0 -20.2 11.5 -6.7 c6.3 -3.7 14 -8.1 17 -9.8 l5.5 -3.2 17 9.9 17 9.8 0.3 12.1 0.3 12.1 -31.1 0 -31 0 0 5.8 0 5.8 13.5 7.8 13.5 7.8 1.5 -0.5 c0.7 -0.3 8.4 -4.7 16.9 -9.6 8.5 -5 15.8 -9.1 16.1 -9.1 l0.6 0 -0.3 4.1 -0.3 4.1 -12 7 c-6.6 3.8 -14.2 8.2 -17 9.8 l-5.1 2.9 -16.9 -9.8z m44.5 -39.9 l0 -5.7 -13.4 -7.8 c-7.3 -4.2 -13.7 -7.7 -14.1 -7.7 -0.5 0 -6.8 3.5 -14.2 7.7 l-13.3 7.7 0 5.8 0 5.8 27.5 0 27.5 0 0 -5.8z"/>
  <path d="M99 140 l0 -40 3.5 0 3.5 0 0 16.5 0 16.5 0.8 0 c0.4 0 7.4 -3.9 15.6 -8.6 l14.8 -8.5 1.2 0.4 c0.6 0.3 9.2 5.2 19.1 11 l18 10.5 0.3 21.1 0.2 21.1 -3.5 0 -3.5 0 0 -18.8 0 -18.8 -15.5 -8.9 c-8.6 -5 -15.9 -8.9 -16.3 -8.8 -0.4 0.1 -7.6 4.1 -15.9 8.9 l-15.3 8.8 0 18.8 0 18.8 -3.5 0 -3.5 0 0 -40z"/>
  <path d="M258.8 170.1 l-16.7 -9.6 0 -20.5 0 -20.5 17 -9.7 16.9 -9.7 17 9.7 16.9 9.7 0.1 12.3 0 12.2 -30.5 0 -30.5 0 0 5.9 0 5.9 13.2 7.6 c7.2 4.2 13.5 7.6 13.9 7.6 0.4 0 7.3 -3.8 15.3 -8.4 8 -4.7 15.4 -9 16.6 -9.6 l2 -1.1 0 4.3 0 4.3 -16.7 9.5 c-9.1 5.2 -16.9 9.6 -17.2 9.6 -0.3 0.1 -8.1 -4.1 -17.3 -9.5z m44.2 -40 l0 -5.9 -13.1 -7.6 c-7.2 -4.2 -13.4 -7.6 -13.8 -7.6 -0.4 0 -6.7 3.4 -13.9 7.6 l-13.2 7.6 0 5.9 0 5.9 27 0 27 0 0 -5.9z"/>
  <path d="M376.2 168.9 l0.3 -11.1 14.5 -8.4 14.5 -8.4 0 -1 0 -1 -14.5 -8.4 -14.5 -8.4 -0.3 -11.1 -0.3 -11.1 3.6 0 3.5 0 0 8.8 0 8.8 15.7 8.9 c8.6 5 16 8.9 16.4 8.8 0.4 -0.1 7.5 -4.2 15.8 -8.9 l15.1 -8.7 0 -8.8 0 -8.9 3.5 0 3.6 0 -0.3 11.2 -0.3 11.2 -14.7 8.5 c-8.2 4.6 -14.8 8.7 -14.8 9.1 0 0.4 6.6 4.5 14.8 9.1 l14.7 8.5 0.3 11.2 0.3 11.2 -3.6 0 -3.5 0 0 -8.9 0 -8.8 -15.1 -8.7 c-8.3 -4.7 -15.4 -8.8 -15.8 -8.9 -0.4 -0.1 -7.8 3.8 -16.4 8.8 l-15.7 8.9 0 8.8 0 8.8 -3.5 0 -3.6 0 0.3 -11.1z"/>
  <path d="M119.9 316.8 c-2.4 -4 -5.5 -9.4 -7.1 -12 l-2.7 -4.8 6.8 -11.7 6.9 -11.8 13.7 0 13.7 0 6.8 11.8 6.8 11.7 -6.8 11.8 -6.8 11.7 -13.5 0.3 -13.6 0.3 -4.2 -7.3z m31.9 -9 l4.4 -7.8 -4.4 -7.7 -4.3 -7.8 -10 0 -10 0 -4.3 7.7 -4.4 7.8 3.8 6.7 c2 3.8 4.1 7.4 4.7 8.1 l1 1.3 9.6 -0.3 9.6 -0.3 4.3 -7.7z"/>
  <path d="M47.7 272 l-6.8 -12 6.8 -12 6.8 -11.9 13.6 -0.1 13.6 0 6.7 11.5 c3.6 6.3 6.6 12 6.6 12.5 0 0.5 -3 6.2 -6.6 12.5 l-6.7 11.5 -13.6 0 -13.6 -0.1 -6.8 -11.9z m34.7 -4 l4.7 -8 -4.7 -8 -4.6 -8 -9.6 0 -9.7 0 -4.2 7.5 c-2.4 4.1 -4.3 7.9 -4.3 8.5 0 0.6 1.9 4.4 4.3 8.5 l4.2 7.5 9.7 0 9.6 0 4.6 -8z"/>
  <path d="M186.6 272.5 c-3.6 -6.3 -6.6 -11.9 -6.6 -12.5 0 -0.6 3 -6.2 6.6 -12.5 l6.7 -11.5 13.6 0 13.6 0.1 6.8 11.9 6.8 12 -6.8 12 -6.8 11.9 -13.6 0.1 -13.6 0 -6.7 -11.5z m34.2 -4 c2.3 -4.1 4.2 -7.9 4.2 -8.5 0 -0.6 -1.9 -4.4 -4.2 -8.5 l-4.3 -7.5 -9.7 0 -9.6 0 -4.6 8 -4.7 8 4.7 8 4.6 8 9.6 0 9.7 0 4.3 -7.5z"/>
  <path d="M532.7 152 l-6.9 -12 6.9 -12 6.8 -11.9 13.6 -0.1 13.7 0 6.6 11.6 c3.6 6.4 6.6 12 6.6 12.4 0 0.4 -3 6 -6.6 12.4 l-6.6 11.6 -13.7 0 -13.6 -0.1 -6.8 -11.9z m34.7 -4 l4.7 -8 -4.7 -8 -4.6 -8 -9.6 0 -9.7 0 -4.2 7.5 c-2.4 4.1 -4.3 7.9 -4.3 8.5 0 0.6 1.9 4.4 4.3 8.5 l4.2 7.5 9.7 0 9.6 0 4.6 -8z"/>
  <path d="M671.6 152.5 c-3.6 -6.3 -6.6 -11.9 -6.6 -12.5 0 -0.6 3 -6.2 6.6 -12.5 l6.7 -11.5 13.6 0 13.6 0.1 6.8 11.9 6.7 12 -6.7 12 -6.8 11.9 -13.6 0.1 -13.6 0 -6.7 -11.5z m34.2 -4 c2.3 -4.1 4.2 -7.9 4.2 -8.5 0 -0.6 -1.9 -4.4 -4.2 -8.5 l-4.3 -7.5 -9.7 0 -9.6 0 -4.7 8 -4.7 8 4.7 8 4.7 8 9.6 0 9.7 0 4.3 -7.5z"/>
  <path d="M604.9 116.8 c-2.4 -4 -5.5 -9.4 -7.1 -12 l-2.7 -4.8 6.8 -11.7 6.8 -11.8 13.8 0 13.7 0 6.8 11.8 6.8 11.7 -6.8 11.8 -6.8 11.7 -13.5 0.3 -13.6 0.3 -4.2 -7.3z m31.9 -9 l4.4 -7.8 -4.4 -7.7 -4.3 -7.8 -9.9 0 -9.9 0 -4.4 7.3 c-2.4 4.1 -4.3 7.8 -4.3 8.3 0 0.7 2.5 5.3 7.7 13.7 l1.4 2.3 9.7 -0.3 9.7 -0.3 4.3 -7.7z"/>
 </g>
</svg>