<?xml version="1.0" encoding="utf-8"?>
<!DOCTYPE svg PUBLIC "-//W3C//DTD SVG 20010904//EN" "http://www.w3.org/TR/2001/REC-SVG-20010904/DTD/svg10.dtd">
<svg version="1.0" xmlns="http://www.w3.org/2000/svg" width="759px" height="399px" viewBox="0 0 759 399" preserveAspectRatio="xMidYMid meet">
 <g fill="#000000">
  <path d="M308.8 263.2 l-35.8 -20.7 0 -42.5 0 -42.5 34.6 -20 c19 -11 35.4 -20.4 36.3 -20.8 l1.7 -0.8 33.9 19.7 c18.7 10.8 34.5 19.7 35 19.7 0.6 0 15.9 -8.6 34 -19.1 18.2 -10.5 33.7 -19.3 34.5 -19.6 l1.5 -0.6 36 20.9 36 20.8 0 42.3 0 42.3 -36 20.8 -36 20.9 -1.5 -0.6 c-0.8 -0.3 -16.3 -9.1 -34.5 -19.6 -18.1 -10.5 -33.4 -19.1 -34 -19.1 -0.5 0 -16.2 8.9 -34.9 19.7 -18.6 10.8 -34.1 19.6 -34.5 19.6 -0.3 -0.1 -16.7 -9.4 -36.3 -20.8z m71.5 -7.6 l30.7 -17.8 0 -37.8 0 -37.8 -30.7 -17.8 c-17 -9.7 -31.7 -18.3 -32.8 -19 l-2 -1.3 -32.5 18.8 -32.5 18.8 0 38.3 0 38.3 32.5 18.8 32.5 18.8 2 -1.3 c1.1 -0.7 15.8 -9.3 32.8 -19z m137 0.9 l32.7 -18.9 0 -37.6 0 -37.6 -33.1 -19.1 -33 -19 -33 19 -32.9 19 0 37.7 0 37.7 32.8 19 c18 10.4 32.9 18.9 33.2 18.8 0.3 -0.1 15.2 -8.7 33.3 -19z"/>
  <path d="M307.2 228.8 l0.3 -11.2 14.8 -8.5 c8.1 -4.7 14.7 -8.8 14.7 -9.1 0 -0.3 -6.6 -4.4 -14.7 -9.1 l-14.8 -8.5 -0.3 -11.2 -0.3 -11.2 3.6 0 3.5 0 0 8.9 0 8.8 15.3 8.8 c8.3 4.9 15.7 8.8 16.2 8.8 0.6 0 7.5 -3.9 15.5 -8.5 l14.5 -8.5 0.3 -9.2 0.3 -9.1 3.4 0 3.5 0 0 11.3 0 11.3 -14.5 8.3 -14.5 8.2 0 0.9 0 0.9 14.5 8.2 14.5 8.3 0 11.3 0 11.3 -3.5 0 -3.4 0 -0.3 -9.1 -0.3 -9.2 -14.5 -8.5 c-8 -4.6 -14.9 -8.5 -15.5 -8.5 -0.5 0 -7.9 3.9 -16.2 8.8 l-15.3 8.8 0 8.8 0 8.9 -3.5 0 -3.6 0 0.3 -11.2z"/>
  <path d="M446 228.8 l0 -11.3 15 -8.5 c8.2 -4.7 15 -8.7 15 -9 0 -0.3 -6.8 -4.3 -15 -9 l-15 -8.5 0 -11.2 0 -11.3 3.5 0 3.4 0 0.3 9.1 0.3 9.1 15.2 8.8 15.2 8.7 15.5 -8.9 15.6 -9 0 -8.9 0 -8.9 3.5 0 3.5 0 0 11.3 -0.1 11.2 -14.9 8.5 c-8.2 4.7 -15 8.7 -15 9 0 0.3 6.8 4.3 15 9 l14.9 8.5 0.1 11.3 0 11.2 -3.5 0 -3.5 0 0 -8.9 0 -8.9 -15.6 -9 -15.5 -8.9 -15.2 8.7 -15.2 8.8 -0.3 9.1 -0.3 9.1 -3.4 0 -3.5 0 0 -11.2z"/>
  <path d="M65 200 l0 -40 3.5 0 3.5 0 0 16.5 0 16.5 0.5 0 c0.3 0 7.3 -3.9 15.5 -8.6 l14.9 -8.6 19 10.8 19 10.9 0.1 21.3 0 21.2 -3.5 0 -3.5 0 0 -18.9 0 -18.9 -15.6 -9 -15.7 -8.9 -15.1 8.7 -15.1 8.8 -0.3 19.1 -0.2 19.1 -3.5 0 -3.5 0 0 -40z"/>
  <path d="M189.3 229.8 l-17.3 -10 0 -19.8 0 -19.8 14.3 -8.2 c7.8 -4.5 15.6 -9.1 17.3 -10.1 l3 -1.8 17 9.7 16.9 9.8 0.3 12.2 0.3 12.2 -31.1 0 -31 0 0 5.4 0 5.4 1.3 1 c2 1.6 25.6 15.2 26.4 15.2 0.5 0 8.2 -4.3 17.3 -9.5 l16.5 -9.5 0.3 3.1 c0.2 1.7 0.1 3.6 -0.1 4.3 l-0.5 1.3 -16.4 9.3 c-8.9 5.1 -16.5 9.4 -16.8 9.6 -0.3 0.1 -8.3 -4.3 -17.7 -9.8z m44.7 -39.7 l0 -5.9 -13.3 -7.6 c-7.3 -4.2 -13.6 -7.6 -14 -7.6 -0.8 0 -24.5 13.7 -26.4 15.2 l-1.3 1 0 5.4 0 5.4 27.5 0 27.5 0 0 -5.9z"/>
  <path d="M584 200 l0 -40 3.5 0 3.5 0 0 40 0 40 -3.5 0 -3.5 0 0 -40z"/>
  <path d="M640 230.1 l-16.5 -9.6 0 -20.5 0 -20.4 16.8 -9.8 16.8 -9.7 16.9 9.7 17 9.7 0 12.3 0 12.2 -30.5 0 -30.5 0 0 5.9 0 6 13.3 7.5 c7.3 4.2 13.6 7.6 13.9 7.6 0.4 0 7.3 -3.9 15.5 -8.6 8.1 -4.7 15.6 -9 16.6 -9.5 l1.7 -1 0 4.3 -0.1 4.3 -16.5 9.5 c-9.1 5.2 -16.9 9.6 -17.2 9.7 -0.4 0 -8.1 -4.2 -17.2 -9.6z m44 -40 l0 -5.9 -13.1 -7.6 c-7.1 -4.2 -13.3 -7.6 -13.7 -7.6 -0.3 0 -6.6 3.4 -13.9 7.6 l-13.3 7.5 0 6 0 5.9 27 0 27 0 0 -5.9z"/>
 </g>
</svg>